<?xml version="1.0" standalone="no"?>
<svg xmlns:xlink="http://www.w3.org/1999/xlink" id="wave" style="transform:rotate(0deg); transition: 0.3s" viewBox="0 0 1440 490" version="1.1" xmlns="http://www.w3.org/2000/svg"><defs><linearGradient id="sw-gradient-0" x1="0" x2="0" y1="1" y2="0"><stop stop-color="rgba(0.427, 0.427, 0.427, 0.49)" offset="0%"/><stop stop-color="rgba(255, 255, 255, 0.25)" offset="100%"/></linearGradient></defs><path style="transform:translate(0, 0px); opacity:1" fill="url(#sw-gradient-0)" d="M0,392L40,359.3C80,327,160,261,240,269.5C320,278,400,359,480,351.2C560,343,640,245,720,220.5C800,196,880,245,960,236.8C1040,229,1120,163,1200,163.3C1280,163,1360,229,1440,253.2C1520,278,1600,261,1680,236.8C1760,212,1840,180,1920,187.8C2000,196,2080,245,2160,269.5C2240,294,2320,294,2400,253.2C2480,212,2560,131,2640,106.2C2720,82,2800,114,2880,114.3C2960,114,3040,82,3120,89.8C3200,98,3280,147,3360,179.7C3440,212,3520,229,3600,204.2C3680,180,3760,114,3840,147C3920,180,4000,310,4080,375.7C4160,441,4240,441,4320,392C4400,343,4480,245,4560,228.7C4640,212,4720,278,4800,269.5C4880,261,4960,180,5040,187.8C5120,196,5200,294,5280,351.2C5360,408,5440,425,5520,392C5600,359,5680,278,5720,236.8L5760,196L5760,490L5720,490C5680,490,5600,490,5520,490C5440,490,5360,490,5280,490C5200,490,5120,490,5040,490C4960,490,4880,490,4800,490C4720,490,4640,490,4560,490C4480,490,4400,490,4320,490C4240,490,4160,490,4080,490C4000,490,3920,490,3840,490C3760,490,3680,490,3600,490C3520,490,3440,490,3360,490C3280,490,3200,490,3120,490C3040,490,2960,490,2880,490C2800,490,2720,490,2640,490C2560,490,2480,490,2400,490C2320,490,2240,490,2160,490C2080,490,2000,490,1920,490C1840,490,1760,490,1680,490C1600,490,1520,490,1440,490C1360,490,1280,490,1200,490C1120,490,1040,490,960,490C880,490,800,490,720,490C640,490,560,490,480,490C400,490,320,490,240,490C160,490,80,490,40,490L0,490Z"/></svg>